<svg width="94" height="94" viewBox="0 0 94 94" fill="none" xmlns="http://www.w3.org/2000/svg">
<circle cx="46.8572" cy="47.2398" r="46.5543" fill="url(#paint0_linear_302_2009)"/>
<path d="M70.281 32.596C71.2005 34.1888 71.0772 36.0853 69.958 37.545L45.3856 69.6104C44.3722 70.9326 42.7036 71.6068 40.9974 71.2793C39.3266 70.9579 38.0018 69.74 37.5421 68.1019L33.9062 55.1616V55.1616C33.6577 54.2784 33.1918 53.4715 32.5512 52.8148V52.8148L23.1626 43.1959C21.9738 41.9787 21.5815 40.2224 22.1386 38.6148C22.69 37.0256 24.0729 35.8724 25.778 35.6489L65.8337 30.4013C67.6574 30.1619 69.3614 31.0034 70.281 32.596Z" fill="white"/>
<path d="M33.9066 55.1611L37.5424 68.1013C38.0022 69.7394 39.3269 70.9573 40.9978 71.2787C42.7041 71.6063 44.3727 70.9322 45.386 69.6098L69.9584 37.5444V37.5444C71.7283 35.2361 68.2392 33.7745 65.7202 35.2289L34.7388 53.116C34.0265 53.5272 33.6839 54.3693 33.9066 55.1611V55.1611Z" fill="white"/>
<path d="M48.4841 45.1794C48.858 45.8271 48.6367 46.6559 47.9881 47.0303L34.9173 54.5768C34.4047 54.8727 33.7507 54.6065 33.5904 54.0368V54.0368C33.5493 53.8908 33.4724 53.7575 33.3665 53.649V53.649C32.9532 53.2253 33.0498 52.5258 33.5623 52.2299L46.6331 44.6834C47.2817 44.3091 48.1101 44.5317 48.4841 45.1794Z" fill="url(#paint1_linear_302_2009)"/>
<path d="M33.6704 54.3227C33.7901 54.7481 34.2786 54.9469 34.6613 54.7259L47.9881 47.0317V47.0317C49.0061 46.4439 47.6588 45.6572 46.6407 46.245L33.9839 53.5525C33.7156 53.7074 33.5865 54.0245 33.6704 54.3227V54.3227Z" fill="url(#paint2_linear_302_2009)"/>
<defs>
<linearGradient id="paint0_linear_302_2009" x1="66.3392" y1="3.29781" x2="26.3255" y2="104.122" gradientUnits="userSpaceOnUse">
<stop stop-color="#747DEF"/>
<stop offset="1" stop-color="#5E3BE1"/>
</linearGradient>
<linearGradient id="paint1_linear_302_2009" x1="43.409" y1="46.6327" x2="44.9221" y2="49.6667" gradientUnits="userSpaceOnUse">
<stop stop-color="#747DEF"/>
<stop offset="1" stop-color="#5E3BE1"/>
</linearGradient>
<linearGradient id="paint2_linear_302_2009" x1="44.0675" y1="47.7746" x2="44.871" y2="49.2699" gradientUnits="userSpaceOnUse">
<stop stop-color="#747DEF"/>
<stop offset="1" stop-color="#5E3BE1"/>
</linearGradient>
</defs>
</svg>
