<svg width="30" height="30" viewBox="0 0 30 30" fill="none" xmlns="http://www.w3.org/2000/svg">
<g clip-path="url(#clip0_422_626)">
<path fill-rule="evenodd" clip-rule="evenodd" d="M21.6523 8.26023C22.1806 8.7885 22.1806 9.645 21.6523 10.1733L10.1741 21.6515C9.64581 22.1798 8.78931 22.1798 8.26104 21.6515C7.73277 21.1232 7.73277 20.2667 8.26104 19.7385L19.7393 8.26023C20.2675 7.73196 21.124 7.73196 21.6523 8.26023Z" fill="black"/>
<path fill-rule="evenodd" clip-rule="evenodd" d="M21.6523 21.6518C21.124 22.1801 20.2675 22.1801 19.7393 21.6518L8.26103 10.1736C7.73276 9.64533 7.73276 8.78884 8.26103 8.26057C8.7893 7.7323 9.6458 7.7323 10.1741 8.26057L21.6523 19.7388C22.1806 20.2671 22.1806 21.1236 21.6523 21.6518Z" fill="black"/>
</g>
<defs>
<clipPath id="clip0_422_626">
<rect width="30" height="30" fill="white"/>
</clipPath>
</defs>
</svg>
