<svg width="63" height="65" viewBox="0 0 63 65" fill="none" xmlns="http://www.w3.org/2000/svg">
<rect x="0.402832" y="0.240234" width="62.5157" height="63.8458" rx="17.2916" fill="#F0BB1F"/>
<path d="M18.419 23.4852C18.0245 23.4852 17.7018 23.1624 17.6946 22.768V18.2566C17.6946 17.855 18.0174 17.5322 18.419 17.5322H22.9303C23.3248 17.5322 23.6475 17.855 23.6475 18.2566V19.8273H41.0043V18.2566C41.0043 17.8621 41.3271 17.5394 41.7216 17.5322H46.2329C46.6274 17.5322 46.9501 17.855 46.9573 18.2566V22.768C46.9573 23.1624 46.6345 23.4852 46.2329 23.4852H44.6622V40.842H46.2329C46.6274 40.842 46.9501 41.1647 46.9573 41.5592V46.0705C46.9573 46.465 46.6345 46.7877 46.2329 46.7949H41.7216C41.3271 46.7949 41.0043 46.4721 41.0043 46.0705V44.4998H23.6475V46.0705C23.6475 46.465 23.3248 46.7877 22.9303 46.7949H18.419C18.0245 46.7949 17.7018 46.4721 17.6946 46.0705V41.5592C17.6946 41.1647 18.0174 40.842 18.419 40.842H19.9897V23.4852H18.419ZM45.5228 22.0507V18.9667H42.4388V22.0507H45.5228ZM42.4388 45.3605H45.5228V42.2764H42.4388V45.3605ZM23.6475 41.5592V43.0653H41.0043V41.5592C41.0043 41.1647 41.3271 40.842 41.7216 40.842H43.2277V23.4852H41.7216C41.3271 23.4852 41.0043 23.1624 41.0043 22.768V21.2618H23.6475V22.768C23.6475 23.1624 23.3248 23.4852 22.9303 23.4852H21.4242V40.842H22.9303C23.3248 40.842 23.6475 41.1647 23.6475 41.5592ZM19.129 42.2764V45.3605H22.2131V42.2764H19.129ZM22.2131 22.0507V18.9667H19.129V22.0507H22.2131Z" fill="white"/>
</svg>
