<svg width="63" height="64" viewBox="0 0 63 64" fill="none" xmlns="http://www.w3.org/2000/svg">
<rect x="0.000244141" width="62.5157" height="63.8458" rx="17.2916" fill="#F15A2B"/>
<path d="M44.0552 47.6809C43.4565 47.6931 42.8683 47.5218 42.3698 47.19C41.9987 46.9475 41.565 46.8184 41.1218 46.8184C40.6785 46.8184 40.2448 46.9475 39.8738 47.19C39.3702 47.5106 38.7855 47.6809 38.1885 47.6809C37.5915 47.6809 37.0069 47.5106 36.5033 47.19C36.1322 46.9473 35.6985 46.818 35.2551 46.818C34.8117 46.818 34.3779 46.9473 34.0068 47.19C33.5032 47.5106 32.9186 47.6809 32.3216 47.6809C31.7246 47.6809 31.14 47.5106 30.6364 47.19C30.2656 46.9474 29.8321 46.8182 29.389 46.8182C28.9459 46.8182 28.5125 46.9474 28.1416 47.19C27.6851 47.4934 27.1522 47.662 26.6042 47.6766L26.574 46.8138C26.9788 46.8042 27.3719 46.6761 27.7047 46.4454C28.2081 46.1248 28.7926 45.9546 29.3894 45.9546C29.9863 45.9546 30.5708 46.1248 31.0742 46.4454C31.4453 46.688 31.879 46.8171 32.3223 46.8171C32.7656 46.8171 33.1992 46.688 33.5703 46.4454C34.074 46.1245 34.6587 45.9541 35.2559 45.9541C35.8531 45.9541 36.4379 46.1245 36.9416 46.4454C37.3126 46.688 37.7463 46.8171 38.1896 46.8171C38.6329 46.8171 39.0666 46.688 39.4376 46.4454C39.9413 46.1249 40.5259 45.9546 41.1229 45.9546C41.7198 45.9546 42.3044 46.1249 42.8081 46.4454C43.18 46.6885 43.6147 46.818 44.0591 46.818C44.5035 46.818 44.9382 46.6885 45.3101 46.4454C45.8081 46.1145 46.3952 45.9435 46.993 45.9553V46.8181C46.5479 46.8059 46.1106 46.936 45.7446 47.1895C45.2448 47.5219 44.6553 47.6933 44.0552 47.6809Z" fill="white"/>
<path d="M20.5919 47.6804C19.9933 47.6928 19.4052 47.5214 18.9069 47.1895C18.5409 46.9358 18.1036 46.8055 17.6584 46.8176V45.9548C18.2572 45.9424 18.8454 46.1137 19.3439 46.4458C19.7096 46.6995 20.1469 46.8298 20.5919 46.8176C21.0371 46.8298 21.4746 46.6994 21.8403 46.4453C22.3377 46.1135 22.925 45.9423 23.5228 45.9548C24.1061 45.9417 24.6797 46.1052 25.1685 46.4238L24.7333 47.1683C24.3762 46.928 23.953 46.8054 23.5228 46.8176C23.0794 46.8057 22.6438 46.9356 22.2795 47.1886C21.7806 47.5215 21.1915 47.6932 20.5919 47.6804Z" fill="white"/>
<path d="M44.0566 44.6618C43.4574 44.674 42.8688 44.5027 42.3698 44.1708C41.9984 43.9281 41.5644 43.7989 41.1207 43.7989C40.6771 43.7989 40.243 43.9281 39.8716 44.1708C39.3681 44.4914 38.7835 44.6616 38.1866 44.6616C37.5897 44.6616 37.0052 44.4914 36.5016 44.1708C36.1307 43.9283 35.6972 43.7991 35.254 43.7991C34.8109 43.7991 34.3773 43.9283 34.0064 44.1708C33.5029 44.4915 32.9184 44.6618 32.3214 44.6618C31.7245 44.6618 31.1399 44.4915 30.6364 44.1708C30.2655 43.9283 29.832 43.7991 29.3888 43.7991C28.9457 43.7991 28.5121 43.9283 28.1412 44.1708C27.643 44.5029 27.0549 44.6742 26.4562 44.6618C25.8576 44.6742 25.2695 44.5029 24.7712 44.1708C24.4056 43.9171 23.9685 43.7868 23.5236 43.799C23.0789 43.7869 22.642 43.9172 22.2765 44.1708C21.779 44.5025 21.1918 44.6738 20.5941 44.6618C19.9953 44.6742 19.4071 44.5029 18.9086 44.1708C18.5423 43.9166 18.1042 43.7863 17.6584 43.799V42.9362C18.2571 42.9238 18.8451 43.0952 19.3435 43.4271C19.7094 43.6808 20.1468 43.8111 20.5919 43.799C21.0366 43.8111 21.4736 43.6808 21.8391 43.4271C22.3366 43.0955 22.9237 42.9242 23.5215 42.9362C24.1206 42.9235 24.7091 43.0948 25.2078 43.4271C25.5735 43.6809 26.0108 43.8112 26.4558 43.799C26.9008 43.8112 27.3381 43.6809 27.7038 43.4271C28.2073 43.1064 28.7919 42.9361 29.3888 42.9361C29.9858 42.9361 30.5703 43.1064 31.0738 43.4271C31.4448 43.6697 31.8784 43.7989 32.3216 43.7989C32.7649 43.7989 33.1985 43.6697 33.5694 43.4271C34.0729 43.1064 34.6575 42.9361 35.2545 42.9361C35.8514 42.9361 36.436 43.1064 36.9395 43.4271C37.3104 43.6697 37.744 43.7989 38.1873 43.7989C38.6305 43.7989 39.0641 43.6697 39.4351 43.4271C39.9391 43.1066 40.524 42.9363 41.1214 42.9363C41.7187 42.9363 42.3036 43.1066 42.8077 43.4271C43.1793 43.6696 43.6135 43.7988 44.0572 43.7988C44.5009 43.7988 44.9351 43.6696 45.3067 43.4271C45.8056 43.0954 46.394 42.9241 46.993 42.9362V43.799C46.547 43.7864 46.1087 43.9167 45.742 44.1708C45.2433 44.5024 44.6553 44.6737 44.0566 44.6618Z" fill="white"/>
<path d="M44.0553 41.6418C43.4566 41.654 42.8684 41.4827 42.3699 41.1508C42.0039 40.8971 41.5666 40.7669 41.1214 40.779C40.7948 40.7678 40.4704 40.8374 40.1771 40.9817L39.7966 40.2052C40.2085 40.0034 40.6629 39.9038 41.1214 39.9149C41.7209 39.9027 42.3097 40.0745 42.8086 40.4071C43.1805 40.6503 43.6153 40.7797 44.0596 40.7797C44.504 40.7797 44.9387 40.6503 45.3107 40.4071C45.8084 40.076 46.3954 39.9047 46.9931 39.9162V40.779C46.548 40.7668 46.1107 40.8969 45.7447 41.1504C45.2449 41.4827 44.6554 41.6542 44.0553 41.6418Z" fill="white"/>
<path d="M38.184 41.6412C37.5862 41.6538 36.999 41.4826 36.5016 41.1508C36.1305 40.908 35.6968 40.7788 35.2534 40.7788C34.81 40.7788 34.3762 40.908 34.0051 41.1508C33.5015 41.4714 32.9169 41.6417 32.3199 41.6417C31.7229 41.6417 31.1383 41.4714 30.6347 41.1508C30.2636 40.9082 29.83 40.779 29.3867 40.779C28.9434 40.779 28.5097 40.9082 28.1387 41.1508C27.6404 41.4822 27.0528 41.6533 26.4545 41.6412C25.8559 41.6536 25.2678 41.4823 24.7695 41.1503C24.4035 40.8966 23.9662 40.7663 23.521 40.7785C23.0777 40.7665 22.6421 40.8965 22.2778 41.1495C21.7794 41.482 21.1909 41.6537 20.5919 41.6412C19.9933 41.6536 19.4052 41.4823 18.9069 41.1503C18.5409 40.8966 18.1036 40.7663 17.6584 40.7785V39.9157C18.2572 39.9032 18.8454 40.0746 19.3439 40.4066C19.7096 40.6604 20.1469 40.7907 20.5919 40.7785C21.0371 40.7907 21.4746 40.6602 21.8404 40.4062C22.3377 40.0743 22.925 39.9031 23.5228 39.9157C24.1214 39.9033 24.7095 40.0747 25.2078 40.4066C25.5735 40.6604 26.0108 40.7907 26.4558 40.7785C26.9009 40.7906 27.3383 40.6603 27.7042 40.4066C28.2079 40.086 28.7925 39.9157 29.3895 39.9157C29.9865 39.9157 30.5711 40.086 31.0747 40.4066C31.4457 40.6492 31.8794 40.7784 32.3227 40.7784C32.766 40.7784 33.1997 40.6492 33.5707 40.4066C34.0744 40.0858 34.6592 39.9153 35.2564 39.9153C35.8536 39.9153 36.4384 40.0858 36.942 40.4066C37.3221 40.6622 37.7728 40.7921 38.2306 40.778C38.2639 40.7785 38.2972 40.7767 38.3303 40.7729L38.445 41.6279C38.3584 41.638 38.2712 41.6424 38.184 41.6412Z" fill="white"/>
<path d="M44.0566 38.6227C43.4574 38.6349 42.8688 38.4636 42.3698 38.1318C41.9984 37.8891 41.5644 37.7598 41.1207 37.7598C40.6771 37.7598 40.243 37.8891 39.8716 38.1318C39.3681 38.4523 38.7835 38.6226 38.1866 38.6226C37.5897 38.6226 37.0052 38.4523 36.5016 38.1318C36.1307 37.8892 35.6972 37.7601 35.254 37.7601C34.8109 37.7601 34.3773 37.8892 34.0064 38.1318C33.5029 38.4524 32.9184 38.6227 32.3214 38.6227C31.7245 38.6227 31.1399 38.4524 30.6364 38.1318C30.2655 37.8892 29.832 37.7601 29.3888 37.7601C28.9457 37.7601 28.5121 37.8892 28.1412 38.1318C27.643 38.4638 27.0549 38.6351 26.4562 38.6227C25.8576 38.6351 25.2695 38.4638 24.7712 38.1318C24.4056 37.8781 23.9685 37.7478 23.5236 37.7599C23.0789 37.7478 22.642 37.8781 22.2765 38.1318C21.779 38.4634 21.1918 38.6347 20.5941 38.6227C19.9953 38.6351 19.4071 38.4638 18.9086 38.1318C18.5423 37.8776 18.1042 37.7473 17.6584 37.7599V36.8971C18.2571 36.8848 18.8451 37.0561 19.3435 37.3881C19.7094 37.6418 20.1468 37.772 20.5919 37.7599C21.0366 37.772 21.4736 37.6417 21.8391 37.3881C22.3366 37.0564 22.9237 36.8851 23.5215 36.8971C24.1206 36.8844 24.7091 37.0558 25.2078 37.3881C25.5735 37.6418 26.0108 37.7721 26.4558 37.7599C26.9008 37.7721 27.3381 37.6418 27.7038 37.3881C28.2073 37.0674 28.7919 36.897 29.3888 36.897C29.9858 36.897 30.5703 37.0674 31.0738 37.3881C31.4448 37.6306 31.8784 37.7598 32.3216 37.7598C32.7649 37.7598 33.1985 37.6306 33.5694 37.3881C34.0729 37.0674 34.6575 36.897 35.2545 36.897C35.8514 36.897 36.436 37.0674 36.9395 37.3881C37.3104 37.6306 37.744 37.7598 38.1873 37.7598C38.6305 37.7598 39.0641 37.6306 39.4351 37.3881C39.9391 37.0675 40.524 36.8973 41.1214 36.8973C41.7187 36.8973 42.3036 37.0675 42.8077 37.3881C43.1793 37.6306 43.6135 37.7597 44.0572 37.7597C44.5009 37.7597 44.9351 37.6306 45.3067 37.3881C45.8056 37.0563 46.394 36.885 46.993 36.8971V37.7599C46.547 37.7473 46.1087 37.8776 45.742 38.1318C45.2433 38.4634 44.6553 38.6347 44.0566 38.6227Z" fill="white"/>
<path d="M37.9092 38.2549L37.0952 37.9693C37.3048 37.3669 37.3905 36.7284 37.347 36.0921C37.3034 35.4558 37.1317 34.8348 36.8419 34.2666L33.8787 28.464C33.8495 28.4067 33.8334 28.3436 33.8317 28.2793C33.83 28.215 33.8427 28.1511 33.8689 28.0923C33.895 28.0335 33.934 27.9814 33.983 27.9396C34.0319 27.8979 34.0896 27.8676 34.1518 27.851L40.0571 26.2764C40.2495 26.2261 40.4143 26.1018 40.5156 25.9306C40.6169 25.7594 40.6464 25.5552 40.5979 25.3623C40.5493 25.1694 40.4265 25.0035 40.2563 24.9006C40.086 24.7978 39.882 24.7664 39.6887 24.8132L32.5414 26.5215C32.3886 26.5576 32.2462 26.6284 32.1252 26.7284C32.0041 26.8284 31.9077 26.9549 31.8435 27.0981C31.7792 27.2413 31.7487 27.3975 31.7545 27.5544C31.7602 27.7112 31.802 27.8647 31.8766 28.0029L33.9991 31.9458C34.0529 32.046 34.065 32.1634 34.0327 32.2725C34.0004 32.3815 33.9263 32.4734 33.8265 32.5281L31.0872 34.038L30.6709 33.2822L33.0358 31.9785L31.1178 28.4118C30.9806 28.1572 30.9038 27.8744 30.8933 27.5854C30.8829 27.2963 30.939 27.0088 31.0574 26.7449C31.1759 26.481 31.3534 26.2479 31.5763 26.0636C31.7992 25.8793 32.0615 25.7487 32.343 25.682L39.4868 23.9741C39.9027 23.869 40.3433 23.9334 40.7117 24.1532C41.0801 24.373 41.3461 24.7301 41.4511 25.146C41.5562 25.5619 41.4918 26.0025 41.272 26.3708C41.0523 26.7392 40.6952 27.0052 40.2793 27.1103L34.8895 28.5468L37.6107 33.8736C37.9533 34.546 38.1564 35.2808 38.2077 36.0337C38.259 36.7867 38.1575 37.5422 37.9092 38.2549Z" fill="white"/>
<path d="M29.163 34.1211L23.9207 37.0098L24.3368 37.765L29.5792 34.8764L29.163 34.1211Z" fill="white"/>
<path d="M41.8162 35.3869C41.1763 35.3869 40.5508 35.1971 40.0187 34.8416C39.4867 34.4861 39.072 33.9808 38.8271 33.3896C38.5822 32.7984 38.5181 32.1479 38.643 31.5202C38.7678 30.8926 39.076 30.3161 39.5284 29.8637C39.9809 29.4112 40.5574 29.103 41.185 28.9782C41.8127 28.8533 42.4632 28.9174 43.0544 29.1623C43.6456 29.4072 44.1509 29.8219 44.5064 30.3539C44.8619 30.886 45.0517 31.5115 45.0517 32.1514C45.0508 33.0093 44.7096 33.8317 44.103 34.4382C43.4965 35.0448 42.674 35.386 41.8162 35.3869ZM41.8162 29.7788C41.347 29.7788 40.8882 29.918 40.4981 30.1787C40.1079 30.4394 39.8038 30.8099 39.6242 31.2435C39.4446 31.677 39.3976 32.1541 39.4892 32.6143C39.5807 33.0746 39.8067 33.4973 40.1385 33.8292C40.4703 34.161 40.8931 34.387 41.3534 34.4785C41.8136 34.5701 42.2907 34.5231 42.7242 34.3435C43.1578 34.1639 43.5283 33.8598 43.789 33.4696C44.0497 33.0794 44.1889 32.6207 44.1889 32.1514C44.1881 31.5224 43.9379 30.9194 43.4931 30.4746C43.0483 30.0298 42.4453 29.7796 41.8162 29.7788Z" fill="white"/>
</svg>
