<svg width="192" height="192" viewBox="0 0 192 192" fill="none" xmlns="http://www.w3.org/2000/svg">
<g clip-path="url(#clip0_410_103)">
<path d="M69.1151 35.0134V57.3588H48.9578V135.997H27.9428V57.3588H8V35.0134H69.1151Z" fill="black"/>
<path d="M97.9051 69.8206C100.264 65.2369 103.123 61.6082 106.483 58.9344C109.842 56.2606 113.452 54.9237 117.312 54.9237V84.8608H111.415C106.84 84.8608 103.445 86.0544 101.229 88.4418C99.0131 90.8291 97.9051 94.983 97.9051 100.904V135.997H76.8901V55.6399H97.9051V69.8206Z" fill="#FF6E04"/>
<path d="M121.415 95.747C121.415 87.4391 122.523 80.1816 124.738 73.9746C127.026 67.7675 130.099 62.9929 133.959 59.6506C137.891 56.3083 142.251 54.6372 147.04 54.6372C151.186 54.6372 154.76 55.7354 157.762 57.9317C160.764 60.1281 163.087 63.0884 164.731 66.8126V55.6399H185.746V135.997H164.731V124.825C163.087 128.549 160.728 131.509 157.655 133.705C154.653 135.902 151.114 137 147.04 137C142.251 137 137.891 135.329 133.959 131.987C130.099 128.644 127.026 123.87 124.738 117.663C122.523 111.36 121.415 104.055 121.415 95.747ZM164.731 95.747C164.731 90.5904 163.659 86.5319 161.515 83.5716C159.442 80.6113 156.869 79.1312 153.795 79.1312C150.65 79.1312 148.041 80.6113 145.968 83.5716C143.895 86.4364 142.859 90.4949 142.859 95.747C142.859 100.904 143.895 105.01 145.968 108.066C148.041 111.026 150.65 112.506 153.795 112.506C156.869 112.506 159.442 111.026 161.515 108.066C163.659 105.105 164.731 100.999 164.731 95.747Z" fill="#FF6E04"/>
<path d="M144.512 106.223C143.118 106.618 141.777 107.28 140.572 108.168C137.427 110.43 135.698 113.505 136.709 115.035C137.72 116.565 141.089 115.971 144.233 113.709C145.458 112.849 146.528 111.777 147.378 110.56C147.771 109.973 147.808 109.267 147.471 108.759L146.157 106.771C145.823 106.262 145.177 106.047 144.512 106.223Z" fill="#D5D6DB"/>
<path d="M134.734 78.6427C133.724 78.9293 132.751 79.4098 131.877 80.054C129.597 81.6938 128.342 83.9232 129.075 85.0317C129.808 86.1403 132.251 85.7092 134.53 84.0696C135.418 83.4455 136.194 82.668 136.811 81.7854C137.095 81.3599 137.122 80.8483 136.878 80.4803L135.927 79.041C135.684 78.6718 135.216 78.5155 134.734 78.6427Z" fill="#D5D6DB"/>
<path d="M121.489 80.5572C121.26 80.5445 121.02 80.6188 120.817 80.7651L115.463 84.6172C115.015 84.9385 114.861 85.5176 115.12 85.9109C115.179 86.001 115.258 86.0764 115.351 86.1327L129.58 94.8071L147.434 81.9624L121.489 80.5572Z" fill="black"/>
<path d="M179.977 75.9352L131.361 110.514L102.207 124.059L87.1656 127.935L85.3303 125.184L166.422 68.5636C168.839 66.8696 171.575 65.7598 174.353 65.3467C175.571 65.1724 176.781 65.1455 177.956 65.2663C178.998 65.3652 179.995 65.6126 180.917 66.0012C181.947 66.4424 183.856 66.3931 184.53 67.3491C184.532 67.3474 186.246 71.8133 179.977 75.9352V75.9352Z" fill="#E1E6E9"/>
<path d="M131.786 106.262L111.952 142.268C111.707 142.771 111.9 143.31 112.382 143.469C112.678 143.568 113.029 143.503 113.316 143.297L118.668 139.463C119.697 138.725 120.594 137.811 121.302 136.777L160.774 84.6607L131.786 106.262Z" fill="black"/>
<path d="M76.6901 108.22C76.3192 108.116 75.8899 108.204 75.5377 108.457L71.1152 111.637C70.5125 112.07 70.3069 112.849 70.6556 113.377C70.722 113.478 70.8059 113.565 70.9044 113.635L84.3459 123.215L97.3832 114.014L76.6901 108.22Z" fill="black"/>
<path d="M88.7563 124.826L82.3869 134.91C82.2933 135.055 82.3271 135.229 82.4623 135.298C82.5598 135.347 82.6881 135.33 82.7888 135.254L86.923 132.295C86.9551 132.272 86.9838 132.244 87.007 132.213L96.42 119.347L88.7563 124.826Z" fill="black"/>
<path d="M177.155 65.719C175.944 65.5934 174.698 65.6218 173.444 65.803C172.315 67.5874 171.641 69.5586 171.488 71.5201C171.491 71.9122 171.822 72.1761 172.228 72.1094C172.354 72.0885 172.477 72.0369 172.587 71.9591L180.204 66.4832C179.254 66.0791 178.227 65.8218 177.155 65.719Z" fill="black"/>
<path d="M160.457 75.9531L165.43 72.4062L170.7 80.3114L165.727 83.8583L160.457 75.9531Z" fill="#D5D6DB"/>
<path d="M157.393 79.3604C156.794 79.789 156.588 80.56 156.935 81.0822L157.496 81.9283C157.862 82.4357 158.635 82.4853 159.223 82.039C159.782 81.6141 159.975 80.8877 159.665 80.3766L159.104 79.5305C158.758 79.0087 157.992 78.9324 157.393 79.3604V79.3604Z" fill="#3A556A"/>
<path d="M152.919 82.5069C152.319 82.9355 152.114 83.7065 152.46 84.2287L153.021 85.0748C153.387 85.5822 154.161 85.6318 154.748 85.1855C155.307 84.7606 155.501 84.0342 155.191 83.5231L154.63 82.677C154.283 82.1554 153.518 82.0791 152.919 82.5069V82.5069Z" fill="#3A556A"/>
<path d="M148.442 85.6484C147.844 86.0775 147.639 86.8475 147.985 87.3693L148.546 88.2154C148.913 88.7227 149.686 88.7723 150.273 88.3261C150.833 87.9012 151.026 87.1748 150.716 86.6637L150.155 85.8177C149.809 85.2954 149.042 85.2197 148.442 85.6484V85.6484Z" fill="#3A556A"/>
<path d="M143.968 88.7871C143.369 89.2162 143.165 89.9862 143.511 90.508L144.072 91.3541C144.438 91.8615 145.211 91.9111 145.799 91.4648C146.358 91.0399 146.552 90.3135 146.241 89.8024L145.68 88.9563C145.334 88.4342 144.567 88.3585 143.968 88.7871V88.7871Z" fill="#3A556A"/>
<path d="M139.494 91.9274C138.895 92.3567 138.69 93.127 139.036 93.649L139.598 94.4955C139.944 95.0173 140.71 95.093 141.309 94.6646C141.908 94.2361 142.113 93.4658 141.767 92.944L141.206 92.0976C140.861 91.5752 140.094 91.4987 139.495 91.9265C139.494 91.9268 139.494 91.927 139.494 91.9274Z" fill="#3A556A"/>
<path d="M135.019 95.0719C134.42 95.5012 134.216 96.2715 134.562 96.7936L135.123 97.64C135.469 98.1618 136.236 98.2375 136.835 97.8091C137.434 97.3807 137.639 96.6104 137.293 96.0885L136.731 95.2421C136.386 94.7197 135.62 94.6432 135.021 95.071C135.02 95.0714 135.02 95.0717 135.019 95.0719Z" fill="#3A556A"/>
<path d="M130.545 98.2204C129.946 98.6496 129.741 99.42 130.087 99.942L130.649 100.788C130.995 101.31 131.762 101.384 132.36 100.955C132.958 100.527 133.162 99.7584 132.818 99.2372L132.257 98.3907C131.911 97.8685 131.144 97.7922 130.545 98.2204Z" fill="#3A556A"/>
<path d="M126.07 101.357C125.471 101.786 125.267 102.557 125.613 103.079L126.174 103.925C126.521 104.446 127.288 104.521 127.886 104.092C128.483 103.664 128.688 102.895 128.344 102.374L127.782 101.527C127.436 101.005 126.67 100.929 126.07 101.357Z" fill="#3A556A"/>
<path d="M121.596 104.504C120.997 104.933 120.792 105.703 121.138 106.225L121.7 107.072C122.047 107.593 122.813 107.667 123.412 107.238C124.009 106.81 124.214 106.042 123.869 105.52L123.308 104.674C122.962 104.152 122.195 104.076 121.596 104.504Z" fill="#3A556A"/>
<path d="M117.12 107.64C116.521 108.069 116.315 108.839 116.662 109.361L116.662 109.362L117.224 110.208C117.57 110.73 118.337 110.804 118.935 110.375C119.533 109.947 119.738 109.178 119.393 108.657L118.832 107.811C118.486 107.288 117.719 107.212 117.12 107.64Z" fill="#3A556A"/>
<path d="M112.647 110.785C112.047 111.213 111.842 111.984 112.188 112.505L112.189 112.506L112.75 113.353C113.097 113.874 113.864 113.949 114.462 113.52C115.06 113.092 115.264 112.323 114.92 111.802L114.359 110.955C114.012 110.433 113.246 110.357 112.647 110.785Z" fill="#3A556A"/>
</g>
<defs>
<clipPath id="clip0_410_103">
<rect width="192" height="192" fill="white"/>
</clipPath>
</defs>
</svg>
