<svg width="23" height="23" viewBox="0 0 23 23" fill="none" xmlns="http://www.w3.org/2000/svg">
<path fill-rule="evenodd" clip-rule="evenodd" d="M5.00899 0.0275041C5.28103 0.00493662 6.68057 0 11.4659 0H15.1966C17.8852 0.00467127 18.0382 0.0268292 18.5489 0.100793L18.5785 0.10508C19.6838 0.264462 20.6112 0.705232 21.3693 1.42951C21.7942 1.83836 22.0869 2.23823 22.3505 2.77368C22.6717 3.42778 22.8295 4.04662 22.9018 4.96695C22.9173 5.16442 22.9244 8.30693 22.9244 11.4516C22.9244 14.5957 22.9178 17.744 22.9023 17.9415C22.8309 18.8472 22.6731 19.4713 22.3619 20.113C22.0582 20.7421 21.6208 21.2972 21.0802 21.7397C20.5397 22.1821 19.9091 22.5013 19.2325 22.6748C18.7344 22.8035 18.2839 22.864 17.5082 22.9005C17.2314 22.9146 14.3364 22.9181 11.4414 22.9181C8.54643 22.9181 5.65322 22.9093 5.36936 22.8969C4.69939 22.8652 4.17752 22.7982 3.70502 22.6766C2.34039 22.3239 1.18205 21.3789 0.575548 20.1201C0.258193 19.4625 0.108331 18.8613 0.0289929 17.9057C0.00607283 17.6342 0.000783591 16.236 0.000783591 11.4546C0.000783591 10.8687 0.000550425 10.3371 0.000338473 9.85386C-3.24038e-05 9.00826 -0.000338325 8.31075 0.000783591 7.73005C0.00529036 5.03847 0.0271796 4.88746 0.101636 4.3738C0.102912 4.36499 0.104203 4.35608 0.105511 4.34705C0.265069 3.24301 0.705839 2.31422 1.43311 1.55927C1.83245 1.1453 2.23707 0.849981 2.75013 0.595216C3.41587 0.263757 4.02695 0.109135 5.00899 0.0275041ZM7.97138 3.04918C8.87408 3.0081 9.16252 2.99805 11.4609 2.99805H11.4584C13.7575 2.99805 14.0448 3.0081 14.9475 3.04918C15.8485 3.09043 16.4638 3.23307 17.0033 3.44234C17.5604 3.65832 18.0312 3.94747 18.5019 4.41821C18.9727 4.8886 19.2618 5.36075 19.4787 5.91736C19.6867 6.45545 19.8295 7.07041 19.8718 7.97134C19.9124 8.87404 19.923 9.16248 19.923 11.4608C19.923 13.7592 19.9124 14.0469 19.8718 14.9496C19.8295 15.8502 19.6867 16.4653 19.4787 17.0036C19.2618 17.56 18.9727 18.0322 18.5019 18.5026C18.0317 18.9733 17.5602 19.2632 17.0038 19.4793C16.4654 19.6886 15.8497 19.8312 14.9488 19.8725C14.0461 19.9136 13.7585 19.9236 11.46 19.9236C9.16182 19.9236 8.87355 19.9136 7.97086 19.8725C7.0701 19.8312 6.45496 19.6886 5.91651 19.4793C5.36026 19.2632 4.88811 18.9733 4.4179 18.5026C3.94733 18.0322 3.65818 17.56 3.44185 17.0034C3.23275 16.4653 3.09012 15.8504 3.04869 14.9494C3.00778 14.0467 2.99756 13.7592 2.99756 11.4608C2.99756 9.16248 3.00814 8.87387 3.04834 7.97117C3.08889 7.07059 3.2317 6.45545 3.4415 5.91718C3.65836 5.36075 3.94751 4.8886 4.41825 4.41821C4.88864 3.94764 5.36079 3.6585 5.9174 3.44234C6.45549 3.23307 7.07045 3.09043 7.97138 3.04918ZM11.1788 4.52303C11.0077 4.52295 10.8491 4.52288 10.7017 4.52311V4.521C9.12444 4.52276 8.82189 4.53334 8.0412 4.5686C7.21608 4.60651 6.76808 4.74403 6.46977 4.86039C6.07484 5.01413 5.79275 5.19749 5.49655 5.49369C5.20035 5.78988 5.01664 6.07198 4.86325 6.46691C4.74742 6.76522 4.60954 7.21304 4.57181 8.03817C4.53126 8.93028 4.52315 9.19686 4.52315 11.4568C4.52315 13.7167 4.53126 13.9847 4.57181 14.8768C4.60937 15.7019 4.74742 16.1497 4.86325 16.4477C5.01699 16.8428 5.20035 17.1242 5.49655 17.4204C5.79275 17.7166 6.07484 17.9 6.46977 18.0533C6.76826 18.1692 7.21608 18.307 8.0412 18.3451C8.93332 18.3857 9.20113 18.3945 11.4609 18.3945C13.7204 18.3945 13.9884 18.3857 14.8805 18.3451C15.7057 18.3074 16.1538 18.1699 16.4518 18.0535C16.8469 17.9001 17.1281 17.7168 17.4243 17.4206C17.7205 17.1246 17.9042 16.8433 18.0576 16.4484C18.1734 16.1504 18.3113 15.7026 18.3491 14.8775C18.3896 13.9854 18.3984 13.7174 18.3984 11.4589C18.3984 9.20039 18.3896 8.9324 18.3491 8.04028C18.3115 7.21516 18.1734 6.76734 18.0576 6.46938C17.9039 6.07445 17.7205 5.79235 17.4243 5.49616C17.1283 5.19996 16.8467 5.0166 16.4518 4.86321C16.1535 4.74738 15.7057 4.6095 14.8805 4.57177C13.9882 4.53122 13.7204 4.52311 11.4609 4.52311C11.3632 4.52311 11.2693 4.52307 11.1788 4.52303ZM15.414 6.09946C15.581 5.98786 15.7774 5.92829 15.9782 5.92829V5.92793C16.5389 5.92793 16.9938 6.38281 16.9938 6.94347C16.9938 7.14434 16.9343 7.34071 16.8228 7.50776C16.7112 7.67481 16.5527 7.80503 16.3671 7.88195C16.1816 7.95887 15.9773 7.97903 15.7803 7.93988C15.5833 7.90074 15.4023 7.80405 15.2603 7.66204C15.1182 7.52003 15.0215 7.33908 14.9822 7.14207C14.943 6.94507 14.9631 6.74086 15.04 6.55527C15.1168 6.36969 15.247 6.21106 15.414 6.09946ZM7.11488 11.4608C7.11488 9.06081 9.0607 7.11493 11.4607 7.11484C13.8608 7.11484 15.8063 9.06075 15.8063 11.4608C15.8063 13.8609 13.861 15.8059 11.4609 15.8059C9.06079 15.8059 7.11488 13.8609 7.11488 11.4608ZM14.2818 11.4608C14.2818 9.9028 13.0187 8.6399 11.4609 8.6399C9.90284 8.6399 8.63994 9.9028 8.63994 11.4608C8.63994 13.0187 9.90284 14.2818 11.4609 14.2818C13.0187 14.2818 14.2818 13.0187 14.2818 11.4608Z" fill="black"/>
</svg>
