<svg width="140" height="140" viewBox="0 0 140 140" fill="none" xmlns="http://www.w3.org/2000/svg">
<path d="M132.371 102.81C132.371 116.033 121.652 126.752 108.429 126.752L72.5157 126.752C68.8427 126.752 65.8651 123.774 65.8651 120.101L65.8651 74.8772C65.8651 67.5312 71.8202 61.576 79.1663 61.576L125.721 61.576C129.394 61.576 132.371 64.5536 132.371 68.2266L132.371 102.81Z" fill="#FFF1DA"/>
<path d="M41.2939 90.3819L38.7825 89.1797L23.863 111.239H40.5134L42.1178 110.193V91.137L41.2939 90.3819Z" fill="#407093"/>
<path d="M39.0094 89.2872L33.3629 86.584H32.2987L16.3323 110.192L17.2828 111.238H24.1636L39.0094 89.2872Z" fill="#365E7D"/>
<path d="M45.1153 110.192H23.0985C22.0983 110.192 21.2874 111.003 21.2874 112.003V114.298C21.2874 115.298 22.0981 116.109 23.0981 116.109H45.1153C46.1155 116.109 46.9264 115.299 46.9264 114.298V112.003C46.9264 111.003 46.1155 110.192 45.1153 110.192V110.192Z" fill="#4A80AA"/>
<path d="M21.6622 114.298V112.003C21.6622 111.003 22.4731 110.192 23.4733 110.192H11.8111C10.8109 110.192 10 111.003 10 112.003V114.298C10 115.299 10.8109 116.109 11.8111 116.109H23.4731C22.4729 116.109 21.6622 115.299 21.6622 114.298V114.298Z" fill="#407093"/>
<path d="M38.2516 76.1807C37.5739 77.5787 37.1909 79.1463 37.1909 80.8046C37.1909 85.3362 40.0285 89.2018 44.0223 90.731C45.737 90.1938 47.2606 89.2247 48.4641 87.9489V85.6333L38.2516 76.1807Z" fill="#4A80AA"/>
<path d="M37.3696 80.8426C37.3696 79.2227 37.7442 77.6915 38.4074 76.3263L35.143 73.3047H33.8184C31.8153 75.1943 30.563 77.8714 30.563 80.8425C30.563 86.5661 35.2028 91.2058 40.9264 91.2058C42.1186 91.2058 43.2619 91.0013 44.3276 90.6305C40.2774 89.2215 37.3696 85.3728 37.3696 80.8426V80.8426Z" fill="#407093"/>
<path d="M97.5381 24.23C95.8982 22.59 93.2393 22.59 91.5995 24.23L87.5921 28.2374V28.7453L92.5939 33.9596L93.5306 34.176L97.5379 30.1685C99.1781 28.5288 99.1781 25.8699 97.5381 24.23V24.23Z" fill="#FFD086"/>
<path d="M98.6459 26.2121C98.471 25.4862 98.1048 24.7968 97.5381 24.23C95.8982 22.59 93.2393 22.59 91.5995 24.23L87.5921 28.2374V28.7453L90.244 31.5099C91.825 29.8646 93.3948 28.2411 94.202 27.4338C95.5477 26.0883 97.5132 26.0779 98.6459 26.2121V26.2121Z" fill="#FFC365"/>
<path d="M83.8183 34.9058C83.7723 34.9058 83.7258 34.9034 83.679 34.8989L37.369 30.3406C36.5966 30.2646 36.0323 29.577 36.1084 28.8047C36.1844 28.0323 36.8723 27.4684 37.6443 27.5439L83.9544 32.102C84.7265 32.178 85.291 32.8656 85.215 33.6379C85.1435 34.3637 84.5323 34.9058 83.8183 34.9058Z" fill="#365E7D"/>
<path d="M50.7627 43.5735C50.1395 43.5735 49.5702 43.1556 49.4047 42.5246C49.2077 41.7739 49.6567 41.0057 50.4072 40.8088L83.4608 32.139C84.2113 31.9424 84.9797 32.391 85.1764 33.1417C85.3734 33.8922 84.9246 34.6604 84.1739 34.8573L51.1203 43.5271C51.0006 43.5584 50.8806 43.5735 50.7627 43.5735V43.5735Z" fill="#407093"/>
<path d="M92.7955 85.6973C92.081 85.6973 91.4698 85.1546 91.3987 84.4287L86.8687 38.0902C86.7933 37.3181 87.3581 36.6307 88.1304 36.555C88.9027 36.483 89.59 37.0446 89.6654 37.8169L94.1954 84.1554C94.2708 84.9275 93.706 85.6149 92.9337 85.6906C92.8873 85.6949 92.8411 85.6973 92.7955 85.6973Z" fill="#365E7D"/>
<path d="M79.466 72.5439C79.3469 72.5439 79.2258 72.5284 79.105 72.4966C78.3549 72.2976 77.9081 71.5284 78.107 70.7783L86.9045 37.597C87.1032 36.8467 87.8723 36.4006 88.6226 36.5988C89.3727 36.7978 89.8196 37.567 89.6206 38.3171L80.8232 71.4984C80.6564 72.128 80.0877 72.5439 79.466 72.5439V72.5439Z" fill="#407093"/>
<path d="M83.5649 32.2627L87.5826 28.245L93.5203 34.1828L89.5026 38.2004L83.5649 32.2627Z" fill="#FFC365"/>
<path d="M86.6163 35.2979C87.5819 34.2868 89.0898 32.7098 90.5483 31.1935L87.5923 28.2373L83.5739 32.2555L86.6163 35.2979Z" fill="#FFA90F"/>
<path d="M90.407 40.4944C90.0475 40.4944 89.6878 40.3571 89.4136 40.0829L81.6861 32.3557C81.1373 31.8068 81.1373 30.9174 81.6861 30.3684C82.2348 29.8199 83.1244 29.8199 83.6732 30.3684L91.4007 38.0956C91.9495 38.6445 91.9495 39.5339 91.4007 40.0829C91.1263 40.3573 90.7667 40.4944 90.407 40.4944Z" fill="#4A80AA"/>
<path d="M91.3139 88.2261L44.2664 40.7705C38.0289 54.852 36.9457 69.9685 41.6153 83.0038C54.5116 94.6369 73.7761 96.4232 91.511 89.1106L91.3139 88.2261Z" fill="#B5DCFF"/>
<path d="M44.5171 41.0231L33.7378 30.1504L32.6576 30.257C25.0631 48.6755 27.2806 68.7452 40.1517 81.6163C40.9313 82.3959 41.738 83.1357 42.5685 83.8375C37.1428 70.8176 38.0246 55.3322 44.5171 41.0231V41.0231Z" fill="#8BCAFF"/>
<path d="M95.6134 84.8529L47.8973 37.1367C47.4277 37.2091 46.9756 37.4226 46.6141 37.7841L44.5386 39.8598C44.0929 40.3055 43.8712 40.8876 43.8649 41.4719L91.4297 89.0366C92.1369 89.7438 93.2835 89.7438 93.9907 89.0366L95.6136 87.4139C96.3206 86.7069 96.3206 85.5601 95.6134 84.8529Z" fill="#DBEDFF"/>
<path d="M44.6102 39.8948L46.6424 37.8626C47.0167 37.4884 47.4893 37.2741 47.977 37.2161L36.9153 26.1544C36.2081 25.4472 35.0616 25.4472 34.3541 26.1544L32.7313 27.7773C32.0241 28.4845 32.0241 29.6311 32.7313 30.3383L43.9485 41.5555C43.9337 40.9561 44.1529 40.3522 44.6102 39.8948V39.8948Z" fill="#B5DCFF"/>
</svg>
