<svg width="140" height="140" viewBox="0 0 140 140" fill="none" xmlns="http://www.w3.org/2000/svg">
<path d="M59.4614 89.1066C59.4614 102.33 70.1806 113.049 83.4036 113.049L119.317 113.049C122.99 113.049 125.967 110.071 125.967 106.398L125.967 61.1741C125.967 53.828 120.012 47.8729 112.666 47.8729L66.112 47.8729C62.4389 47.8729 59.4614 50.8504 59.4614 54.5235L59.4614 89.1066Z" fill="#FFF1DA"/>
<path d="M90.0545 62.3042V54.7273C90.0545 53.2419 88.8505 52.0379 87.3651 52.0379H84.4672C83.3085 52.0379 82.2804 51.2955 81.9162 50.1955C81.5104 48.9702 81.0175 47.7846 80.4447 46.6461C79.9231 45.6091 80.1228 44.3556 80.9435 43.5347L82.9938 41.4844C84.0441 40.4341 84.0441 38.7313 82.9938 37.681L77.6361 32.3233C76.5858 31.273 74.883 31.273 73.8327 32.3233L71.7823 34.3736C70.9615 35.1944 69.7079 35.394 68.671 34.8724C67.5325 34.2996 66.3469 33.8067 65.1216 33.4009C64.0216 33.0367 63.2792 32.0086 63.2792 30.8499V27.9521C63.2792 26.4668 62.0751 25.2627 60.5898 25.2627H53.0129C51.5276 25.2627 50.3235 26.4668 50.3235 27.9521V30.85C50.3235 32.0087 49.5811 33.0368 48.4811 33.4011C47.2558 33.8068 46.0702 34.2998 44.9317 34.8725C43.8947 35.3941 42.6412 35.1944 41.8203 34.3738L39.77 32.3234C38.7197 31.2731 37.0169 31.2731 35.9666 32.3234L30.6092 37.6811C29.5589 38.7314 29.5589 40.4342 30.6092 41.4846L32.6595 43.5349C33.4802 44.3557 33.6798 45.6093 33.1582 46.6462C32.5855 47.7847 32.0925 48.9703 31.6868 50.1956C31.4293 50.973 30.8404 51.5717 30.1082 51.856C29.8043 51.974 29.6095 52.1717 29.2696 52.1717H26.3717C24.8863 52.1717 23.6823 53.3758 23.6823 54.8611V62.1704C23.6823 63.6557 24.8863 64.8598 26.3717 64.8598H29.2696C30.4283 64.8598 31.4564 65.736 31.8206 66.8359C32.2263 68.0613 32.7193 69.2468 33.292 70.3854C33.8137 71.4223 33.614 72.6759 32.7933 73.4967L30.8768 75.547C29.8265 76.5974 29.8265 78.3002 30.8768 79.3505L35.9669 84.4405C37.0172 85.4908 38.72 85.4908 39.7703 84.4405L41.8206 82.3902C42.6413 81.5694 43.895 81.3699 44.9319 81.8915C46.0704 82.4642 47.5237 83.091 48.749 83.4967C49.849 83.861 50.5914 84.8891 50.5914 86.0478V88.9457C50.5914 90.431 51.7955 91.6351 53.2808 91.6351H60.4562C61.9416 91.6351 63.1457 90.431 63.1457 88.9457V86.0478C63.1457 85.7079 63.3433 85.5131 63.4613 85.2092C63.7457 84.4769 64.3445 83.888 65.1217 83.6305C66.347 83.2248 67.5326 82.7318 68.6711 82.1591C69.7081 81.6375 70.9617 81.8371 71.7825 82.6578L73.8328 84.7082C74.8831 85.7585 76.5859 85.7585 77.6362 84.7082L82.9939 79.3505C84.0442 78.3002 84.0442 76.5974 82.9939 75.547L80.9436 73.4967C80.1229 72.6759 79.9233 71.4223 80.4449 70.3854C81.0176 69.2469 81.5106 68.0613 81.9163 66.8359C82.2805 65.736 83.3086 64.9936 84.4673 64.9936H87.3652C88.8505 64.9936 90.0545 63.7895 90.0545 62.3042V62.3042Z" fill="#B6C4CF"/>
<path d="M63.4616 85.2099C63.3438 85.5136 63.2796 85.8428 63.2796 86.1827V89.0798C63.2796 90.5651 62.0753 91.7695 60.5899 91.7695H53.0133C51.528 91.7695 50.3236 90.5651 50.3236 89.0798V86.1827C50.3236 85.0239 49.581 83.9948 48.481 83.6308C47.2566 83.2254 46.071 82.7329 44.9322 82.1602C43.8952 81.6383 42.6413 81.8377 41.821 82.658L39.771 84.708C38.7205 85.7585 37.0171 85.7585 35.9666 84.708L30.6087 79.3514C29.5596 78.301 29.5596 76.5975 30.6087 75.5471L32.6601 73.497C33.4803 72.6767 33.6797 71.4229 33.1578 70.3858C32.5851 69.2471 32.0927 68.0615 31.6872 66.837C31.3232 65.7371 30.2942 64.9944 29.1354 64.9944H26.2383C24.7529 64.9944 23.5486 63.7901 23.5486 62.3047V54.7281C23.5486 53.2428 24.7529 52.0384 26.2383 52.0384H29.1354C29.4753 52.0384 29.8044 51.9742 30.1082 51.8564C30.1055 52.0237 30.1042 52.1923 30.1042 52.3609C30.1042 70.5049 44.8131 85.2139 62.9571 85.2139C63.1257 85.2139 63.2943 85.2125 63.4616 85.2099V85.2099Z" fill="#9FACBA"/>
<path d="M56.8014 80.5945C68.9955 80.5945 78.8809 70.7092 78.8809 58.515C78.8809 46.3209 68.9955 36.4355 56.8014 36.4355C44.6072 36.4355 34.7219 46.3209 34.7219 58.515C34.7219 70.7092 44.6072 80.5945 56.8014 80.5945Z" fill="#9FACBA"/>
<path d="M56.8015 75.913C66.409 75.913 74.1975 68.1246 74.1975 58.517C74.1975 48.9095 66.409 41.1211 56.8015 41.1211C47.194 41.1211 39.4055 48.9095 39.4055 58.517C39.4055 68.1246 47.194 75.913 56.8015 75.913Z" fill="#F8F7F7"/>
</svg>
