<svg width="140" height="140" viewBox="0 0 140 140" fill="none" xmlns="http://www.w3.org/2000/svg">
<g clip-path="url(#clip0_478_82)">
<path d="M40.8747 84.6606C40.8747 97.8445 51.5624 108.532 64.7463 108.532L100.554 108.532C104.216 108.532 107.185 105.563 107.185 101.901L107.185 56.8104C107.185 49.486 101.247 43.5484 93.9227 43.5484L47.5057 43.5484C43.8435 43.5484 40.8747 46.5172 40.8747 50.1794L40.8747 84.6606Z" fill="#FFF1DA"/>
<path d="M89.0345 76.3999C87.3407 76.7716 85.6903 77.4678 84.1858 78.4446C80.2663 80.9268 77.9819 84.4869 79.0838 86.3956C80.1857 88.3042 84.2563 87.8382 88.1758 85.356C89.7005 84.4141 91.0556 83.2072 92.1579 81.8101C92.6694 81.1349 92.7626 80.2909 92.3958 79.6577L90.9644 77.1782C90.6002 76.543 89.8428 76.238 89.0345 76.3999Z" fill="#D5D6DB"/>
<path d="M79.1996 42.7485C77.9714 43.0183 76.7746 43.5233 75.6835 44.2317C72.8422 46.0312 71.1848 48.6125 71.9831 49.9954C72.7815 51.3782 75.7343 51.04 78.5754 49.2408C79.6809 48.5574 80.6634 47.6819 81.4628 46.6687C81.8333 46.1793 81.9006 45.5678 81.6348 45.1088L80.5983 43.3134C80.3346 42.853 79.7858 42.6313 79.1996 42.7485Z" fill="#D5D6DB"/>
<path d="M63.2266 44.0876C62.9533 44.0557 62.6618 44.1272 62.4087 44.2879L55.7342 48.5145C55.1759 48.8669 54.9515 49.55 55.2334 50.0404C55.2979 50.1528 55.3863 50.2489 55.4936 50.3232L71.9031 61.7627L94.1592 47.6691L63.2266 44.0876Z" fill="#029BC5"/>
<path d="M133.494 42.7011L72.9716 80.7064L37.1835 94.8444L18.9401 98.3943L16.9415 94.9473L117.82 32.8272C120.826 30.9679 124.173 29.8351 127.522 29.544C128.989 29.4244 130.437 29.4818 131.833 29.7142C133.07 29.9103 134.243 30.2819 135.318 30.8178C136.517 31.4249 138.801 31.5071 139.539 32.7073C139.541 32.7053 141.275 38.2059 133.494 42.7011V42.7011Z" fill="#E1E6E9"/>
<path d="M73.8228 75.5264L47.5806 117.314C47.2527 117.902 47.4453 118.562 48.0103 118.79C48.357 118.93 48.7819 118.877 49.1392 118.651L55.8055 114.44C57.0877 113.63 58.2237 112.598 59.1432 111.408L109.991 51.7145L73.8228 75.5264Z" fill="#029BC5"/>
<path d="M7.76483 74.1591C7.32842 74.0074 6.80861 74.0824 6.36942 74.3601L0.855077 77.8465C0.103708 78.3212 -0.197018 79.2394 0.183159 79.8978C0.255594 80.0229 0.349782 80.1332 0.462753 80.2243L15.8724 92.6793L32.1161 82.6084L7.76483 74.1591Z" fill="#029BC5"/>
<path d="M21.0725 94.8634L12.7499 106.51C12.6279 106.677 12.6561 106.888 12.8128 106.981C12.9258 107.048 13.0803 107.037 13.206 106.953L18.3555 103.702C18.3955 103.677 18.4317 103.645 18.4617 103.609L30.6178 88.8443L21.0725 94.8634Z" fill="#029BC5"/>
<path d="M130.816 30.1776C129.377 29.9382 127.885 29.8809 126.373 30.0065C124.897 32.0643 123.952 34.3796 123.632 36.7215C123.608 37.1921 123.985 37.5329 124.475 37.4827C124.627 37.4669 124.779 37.414 124.915 37.3287L134.408 31.3178C133.301 30.7634 132.091 30.3795 130.816 30.1776Z" fill="#029BC5"/>
<path d="M110.145 41.2451L116.348 37.3632L122.104 47.2013L115.9 51.0832L110.145 41.2451Z" fill="#D5D6DB"/>
<path d="M106.251 45.1477C105.503 45.6167 105.203 46.5243 105.581 47.1747L106.194 48.2286C106.597 48.8626 107.519 48.9788 108.253 48.4879C108.952 48.0204 109.235 47.1653 108.899 46.5309L108.287 45.477C107.909 44.8271 106.998 44.6795 106.251 45.1477V45.1477Z" fill="#3A556A"/>
<path d="M100.685 48.6018C99.9381 49.0708 99.6382 49.9784 100.016 50.6288L100.629 51.6827C101.031 52.3167 101.953 52.4329 102.688 51.942C103.387 51.4745 103.67 50.6194 103.334 49.985L102.722 48.9311C102.344 48.2814 101.432 48.1338 100.685 48.6018V48.6018Z" fill="#3A556A"/>
<path d="M95.1182 52.0618C94.3716 52.5314 94.0728 53.4379 94.4505 54.0878L95.0629 55.1416C95.4658 55.7756 96.3877 55.8918 97.1223 55.4009C97.8213 54.9335 98.1039 54.0783 97.7684 53.4439L97.156 52.3901C96.7781 51.7397 95.8658 51.5927 95.1182 52.0618V52.0618Z" fill="#3A556A"/>
<path d="M89.553 55.5159C88.8065 55.9855 88.5077 56.892 88.8854 57.5419L89.4978 58.5957C89.9007 59.2298 90.8226 59.346 91.5572 58.8551C92.2562 58.3876 92.5388 57.5325 92.2033 56.8981L91.5909 55.8442C91.2126 55.194 90.3004 55.047 89.553 55.5159V55.5159Z" fill="#3A556A"/>
<path d="M83.9882 58.9736C83.2412 59.4433 82.9423 60.3502 83.3201 61.0004L83.9329 62.0546C84.3106 62.7045 85.2225 62.8514 85.9696 62.3827C86.7167 61.914 87.0162 61.0072 86.6385 60.3573L86.0257 59.303C85.6489 58.6525 84.7374 58.5047 83.9898 58.9726C83.9891 58.973 83.9888 58.9732 83.9882 58.9736Z" fill="#3A556A"/>
<path d="M78.4232 62.4267C77.6762 62.8964 77.3772 63.8033 77.7551 64.4535L78.3679 65.5077C78.7456 66.1576 79.6575 66.3045 80.4046 65.8358C81.1517 65.3671 81.4512 64.4603 81.0734 63.8104L80.4607 62.7562C80.0839 62.1057 79.1724 61.9578 78.4248 62.4257C78.4241 62.4261 78.4235 62.4265 78.4232 62.4267Z" fill="#3A556A"/>
<path d="M72.8574 65.8867C72.1104 66.3564 71.8115 67.2633 72.1893 67.9134L72.8021 68.9676C73.1807 69.6169 74.0931 69.7624 74.8394 69.2931C75.5844 68.8245 75.8833 67.9196 75.5073 67.2705L74.8946 66.2163C74.517 65.566 73.6051 65.4183 72.8574 65.8867Z" fill="#3A556A"/>
<path d="M67.2918 69.3417C66.5449 69.8115 66.2459 70.7184 66.6238 71.3686L67.2365 72.4228C67.6152 73.0721 68.5275 73.2176 69.2738 72.7482C70.0189 72.2797 70.3177 71.3747 69.9417 70.7256L69.329 69.6714C68.9515 69.021 68.0396 68.8734 67.2918 69.3417Z" fill="#3A556A"/>
<path d="M61.7267 72.7969C60.9798 73.2666 60.6808 74.1734 61.0587 74.8236L61.6714 75.8778C62.0501 76.5271 62.9624 76.6726 63.7087 76.2032C64.4538 75.7347 64.7526 74.8298 64.3766 74.1807L63.7639 73.1265C63.386 72.4763 62.4741 72.3287 61.7267 72.7969Z" fill="#3A556A"/>
<path d="M56.1597 76.2568C55.4126 76.7255 55.1131 77.6323 55.4909 78.2822L55.4917 78.2836L56.1044 79.3378C56.483 79.9871 57.3954 80.1326 58.1417 79.6633C58.8867 79.1947 59.1856 78.2898 58.8096 77.6407L58.1969 76.5864C57.8193 75.936 56.9075 75.7884 56.1597 76.2568Z" fill="#3A556A"/>
<path d="M50.5959 79.7099C49.8487 80.1786 49.5493 81.0854 49.927 81.7353L49.9278 81.7367L50.5405 82.7909C50.9192 83.4402 51.8315 83.5856 52.5779 83.1163C53.3229 82.6478 53.6218 81.7429 53.2458 81.0938L52.6331 80.0396C52.2552 79.3894 51.3433 79.2418 50.5959 79.7099Z" fill="#3A556A"/>
</g>
<defs>
<clipPath id="clip0_478_82">
<rect width="140" height="140" fill="white"/>
</clipPath>
</defs>
</svg>
