<svg width="22" height="18" viewBox="0 0 22 18" fill="none" xmlns="http://www.w3.org/2000/svg">
<path d="M21.3333 2.04706C20.54 2.39422 19.6947 2.62433 18.8133 2.73606C19.72 2.19603 20.412 1.34741 20.7373 0.32455C19.892 0.827336 18.9587 1.18248 17.964 1.38067C17.1613 0.528058 16.0173 0 14.7693 0C12.348 0 10.3987 1.9606 10.3987 4.36413C10.3987 4.70996 10.428 5.04249 10.5 5.35906C6.864 5.18215 3.64667 3.44368 1.48533 0.795413C1.108 1.4485 0.886667 2.19603 0.886667 3.00075C0.886667 4.51177 1.66667 5.8512 2.82933 6.62667C2.12667 6.61336 1.43733 6.40986 0.853333 6.0893C0.853333 6.1026 0.853333 6.11989 0.853333 6.13718C0.853333 8.25739 2.36933 10.0185 4.35733 10.4242C4.00133 10.5213 3.61333 10.5678 3.21067 10.5678C2.93067 10.5678 2.648 10.5519 2.38267 10.4933C2.94933 12.2212 4.55733 13.4914 6.46933 13.5327C4.98133 14.6939 3.092 15.3935 1.04667 15.3935C0.688 15.3935 0.344 15.3775 0 15.3336C1.93733 16.58 4.23333 17.2916 6.70933 17.2916C14.7573 17.2916 19.1573 10.641 19.1573 4.87623C19.1573 4.68336 19.1507 4.49714 19.1413 4.31225C20.0093 3.69774 20.7387 2.93026 21.3333 2.04706Z" fill="#080809"/>
</svg>
